<?xml version="1.0" standalone="no"?><!DOCTYPE svg PUBLIC "-//W3C//DTD SVG 1.1//EN" "http://www.w3.org/Graphics/SVG/1.1/DTD/svg11.dtd"><svg t="1573469470166" class="icon" viewBox="0 0 1024 1024" version="1.1" xmlns="http://www.w3.org/2000/svg" p-id="3066" width="16" height="16" xmlns:xlink="http://www.w3.org/1999/xlink"><defs><style type="text/css"></style></defs><path d="M358.3 876c42.4 17.9 87.2 28.2 133.3 30.5v50C255.3 945.9 67 750.9 67 512 67 266.2 266.2 67 512 67c90.7 0 175.1 27.1 245.4 73.7L723 178a393.5 393.5 0 0 0-57.2-29.9c-48.7-20.6-100.4-31-153.7-31s-105.1 10.4-153.7 31c-47 19.9-89.3 48.4-125.6 84.7-36.3 36.3-64.8 78.5-84.7 125.6-20.6 48.7-31 100.4-31 153.7s10.4 105.1 31 153.7c19.9 47 48.4 89.3 84.7 125.6 36.2 36.2 78.4 64.7 125.5 84.6z m587-465.9c-5.8-24.7-13.6-48.5-23.3-71.4 0-0.1 0-0.1-0.1-0.2 0-0.1 0-0.1-0.1-0.2 0-0.1 0-0.1-0.1-0.2 0-0.1 0-0.1-0.1-0.2 0-0.1-0.1-0.2-0.1-0.4 0-0.1 0-0.1-0.1-0.1 0 0 0-0.1-0.1-0.1v-0.1-0.1-0.1-0.1-0.1s0-0.1-0.1-0.1c0-0.1 0-0.1-0.1-0.2v-0.1-0.1-0.1-0.1-0.1-0.1-0.1-0.1-0.1-0.1-0.1-0.1c-0.1-0.1-0.1-0.3-0.2-0.4 0 0 0-0.1-0.1-0.1v-0.1-0.1c0-0.1 0-0.1-0.1-0.1 0 0 0-0.1-0.1-0.1-0.1-0.3-0.2-0.5-0.3-0.8 0-0.1 0-0.1-0.1-0.1-2.6-5.9-5.3-11.7-8.1-17.5l-44.9 22c13 26.5 23 54.6 29.8 83.3l48.3-11.2zM513.6 907l0.2 50c34.1-0.1 67.3-4.1 99.1-11.5l-11.3-48.7c-28.6 6.6-58.2 10.1-88 10.2zM957 511.8v-0.1-2.4l-50 0.3v2.4c0 28.9-3.1 57.8-9.3 85.7l48.8 10.8c4.2-19 7.2-38.4 8.9-58.3v-0.2-0.2-0.2-0.2c0-0.5 0.1-1 0.1-1.5v-0.2-0.4-0.2c0-0.6 0.1-1.1 0.1-1.7v-0.2-0.2-0.2-0.2-0.2-0.2c0-0.4 0.1-0.8 0.1-1.1v-0.2-0.1-0.1-0.1-0.1-0.1-0.1-0.1-0.2-0.8-0.2-0.2-0.2-0.1-0.1-0.1-0.1-0.1-0.1-0.1-0.1-0.1-0.1-0.2-0.2-0.2-0.2-0.1-0.1-0.1-0.1-0.1-0.1-0.1-0.1-0.1-0.1-0.1-0.1-0.1-0.1-0.1-0.1-0.1-0.4-0.2-0.1-0.1-0.1-0.1-0.1-0.1-0.1-0.1-0.1-0.1-0.1-0.2-0.2-0.2-0.6-0.2-0.1-0.1-0.1-0.1-0.1-0.1-0.1-0.1-0.1-0.1-0.1-0.1-0.1-0.1-0.1-0.1-0.1-0.2-0.6-0.1-0.1-0.1-0.1-0.1-0.1-0.1-0.1-0.1-0.1-0.1-0.1-0.1-0.1-0.1-0.1-0.1-0.1-0.1-0.2-0.4-0.1-0.1-0.1-0.1-0.1-0.1-0.1-0.1-0.1-0.1-0.1-0.1-0.1-0.1-0.1-0.1-0.1-0.1-0.1-0.1-0.1-0.2-0.2-0.2-0.1-0.1-0.1-0.1-0.1-0.1-0.1-0.1-0.1-0.1-0.1-0.1-0.1-0.1-0.1-0.1-0.1-0.1-0.1-0.1-0.1-0.2-0.1-0.1-0.1-0.1-0.1-0.1-0.1-0.1-0.1-0.1-0.1-0.1-0.1-0.1-0.1-0.1-0.1-0.1-0.1-0.1-0.1-0.1-0.1-0.1-0.4-0.1-0.1-0.1-0.1-0.1-0.1-0.1-0.1-0.1-0.1-0.1-0.1-0.1-0.1-0.1-0.1-0.1-0.1-0.1-0.1-0.1-0.1-0.1-0.1-0.1-0.1-0.1-0.1-0.1-0.1-0.1-0.1-0.1-0.1-0.1-0.1-0.1-0.1-0.1-0.1-0.1-0.1-0.1-0.1-0.1-0.1-0.1-0.1-0.1-0.1-0.1-0.1-0.1-0.1-0.1-0.1-0.1-0.1-0.1-0.1-0.1-0.1-0.1-0.1-0.1-0.1-0.1-0.1-0.1-0.1-0.1-0.1-0.4-0.2-0.1-0.1-0.1-0.1-0.1-0.1-0.1-0.1-0.1-0.1-0.1-0.1-0.1-0.1-0.1-0.1-0.1-0.1-0.1-0.1-0.1-0.2c1.3 0.8 1.3 0.8 1.3 0.7zM854.5 227.9c0-0.1-0.1-0.1-0.1-0.1l-0.1-0.1-0.1-0.1-0.1-0.1-0.1-0.1-0.1-0.1v-0.1l-0.1-0.1v-0.1s0-0.1-0.1-0.1l-0.1-0.1-0.1-0.1s0-0.1-0.1-0.1l-0.2-0.2-0.1-0.1-0.1-0.1-0.1-0.1-0.1-0.1c-0.2-0.2-0.3-0.4-0.5-0.6-13.6-16.1-28.2-31.2-43.9-45.2l-0.1-0.1c-0.2-0.1-0.3-0.3-0.5-0.4l-0.1-0.1-0.1-0.1-0.1-0.1-0.1-0.1-0.1-0.1h-0.1l-0.3-0.3-0.1-0.1-0.1-0.1-0.1-0.1-0.1-0.1-0.1-0.1-0.1-0.1-0.1-0.1-0.1-0.1s-0.1 0-0.1-0.1l-0.1-0.1-0.1-0.1-0.1-0.1-0.1-0.1-0.1-0.1-0.1-0.1-0.4-0.4c-5.9-5.1-11.9-10.1-18-15l-31 39.3c23.3 18.3 44.5 39.2 63.1 62.2L858 232c-1.2-1.3-2.3-2.7-3.5-4.1z m-32.3 528.7l39.2 31s0-0.1 0.1-0.1v-0.1l0.1-0.1 0.1-0.1c0.1-0.1 0.2-0.3 0.4-0.4l0.1-0.1 0.1-0.1 0.1-0.1c0.1-0.2 0.2-0.3 0.4-0.5l0.1-0.1 0.1-0.1 0.1-0.1c0.2-0.3 0.4-0.5 0.6-0.8 0.2-0.3 0.4-0.5 0.6-0.8 0.3-0.4 0.5-0.7 0.8-1.1 6.2-8.1 12.2-16.5 17.9-25 0.2-0.3 0.4-0.6 0.6-1 0.2-0.3 0.4-0.6 0.6-1 0-0.1 0.1-0.1 0.1-0.2 0.1-0.2 0.3-0.4 0.4-0.6l0.1-0.1 0.1-0.1c0-0.1 0.1-0.1 0.1-0.2 0.1-0.2 0.2-0.3 0.3-0.5l0.1-0.1 0.1-0.1 0.1-0.1c0.1-0.2 0.3-0.4 0.4-0.6l0.1-0.1 0.1-0.1c0.1-0.1 0.1-0.2 0.2-0.3 0 0 0.1-0.1 0.1-0.2l0.1-0.1 0.1-0.1 0.1-0.1c0.1-0.1 0.1-0.2 0.2-0.3l0.1-0.1s0-0.1 0.1-0.1c0 0 0-0.1 0.1-0.1 0 0 0-0.1 0.1-0.1l0.1-0.1c0-0.1 0.1-0.1 0.1-0.2l0.1-0.1s0-0.1 0.1-0.1v-0.1s0-0.1 0.1-0.1v-0.1s0-0.1 0.1-0.1v-0.1s0-0.1 0.1-0.1c0-0.1 0.1-0.1 0.1-0.2 0 0 0-0.1 0.1-0.1v-0.1s0-0.1 0.1-0.1v-0.1s0-0.1 0.1-0.1v-0.1s0-0.1 0.1-0.1c0 0 0-0.1 0.1-0.1l0.1-0.1v-0.1s0-0.1 0.1-0.1v-0.1s0-0.1 0.1-0.1v-0.1-0.1s0-0.1 0.1-0.1v-0.1l0.1-0.1v-0.1-0.1-0.1c0-0.1 0.1-0.1 0.1-0.2 0 0 0-0.1 0.1-0.1 0 0 0-0.1 0.1-0.1v-0.1s0-0.1 0.1-0.1v-0.1s0-0.1 0.1-0.1c0.1-0.1 0.2-0.2 0.2-0.4 0 0 0-0.1 0.1-0.1v-0.1s0-0.1 0.1-0.1v-0.1s0-0.1 0.1-0.1v-0.1s0-0.1 0.1-0.1c0 0 0-0.1 0.1-0.1 0.1-0.1 0.1-0.1 0.1-0.2v-0.1s0-0.1 0.1-0.1c0 0 0-0.1 0.1-0.1v-0.1s0-0.1 0.1-0.1c0 0 0-0.1 0.1-0.1 0.1-0.2 0.2-0.4 0.3-0.5 0 0 0-0.1 0.1-0.1 0 0 0-0.1 0.1-0.1l0.1-0.1c0.1-0.2 0.2-0.4 0.3-0.5 0 0 0-0.1 0.1-0.1 0 0 0-0.1 0.1-0.1 0 0 0-0.1 0.1-0.1 0.1-0.2 0.3-0.5 0.4-0.7l0.1-0.1c7.6-12.5 14.5-25.4 20.8-38.7l-45.2-21.5c-11.9 25.2-27.7 50.5-46 73.7zM685.1 867.2l21.9 44.9c3.8-1.9 7.6-3.8 11.4-5.8 0.1 0 0.1-0.1 0.2-0.1 0.3-0.2 0.7-0.4 1-0.5 0.3-0.2 0.6-0.3 0.9-0.5 0.1 0 0.1-0.1 0.2-0.1s0.1-0.1 0.2-0.1 0.1-0.1 0.2-0.1c0.1-0.1 0.2-0.1 0.3-0.2 0.1 0 0.1-0.1 0.2-0.1s0.1-0.1 0.2-0.1 0.1-0.1 0.2-0.1c0.2-0.1 0.3-0.2 0.5-0.3l0.1-0.1s0.1 0 0.1-0.1c0 0 0.1 0 0.1-0.1 0 0 0.1 0 0.1-0.1 0.1-0.1 0.2-0.1 0.3-0.2 0 0 0.1 0 0.1-0.1 0 0 0.1 0 0.1-0.1h0.1s0.1 0 0.1-0.1l0.1-0.1c0.1-0.1 0.2-0.1 0.3-0.2 0 0 0.1 0 0.1-0.1 0 0 0.1 0 0.1-0.1h0.1s0.1 0 0.1-0.1h0.1s0.1 0 0.1-0.1h0.1c0.1-0.1 0.2-0.1 0.3-0.2 0 0 0.1 0 0.1-0.1h0.1s0.1 0 0.1-0.1h0.5s0.1 0 0.1-0.1h0.1l0.1-0.1h0.4s0.1 0 0.1-0.1H726.9s0.1 0 0.1-0.1c0.1-0.1 0.2-0.1 0.3-0.2h0.1s0.1 0 0.1-0.1h0.1s0.1 0 0.1-0.1h0.1s0.1 0 0.1-0.1h0.1s0.1 0 0.1-0.1c0.1-0.1 0.3-0.1 0.4-0.2 0 0 0.1 0 0.1-0.1h0.1s0.1 0 0.1-0.1c0 0 0.1 0 0.1-0.1l0.6-0.3s0.1 0 0.1-0.1c0 0 0.1 0 0.1-0.1 0 0 0.1 0 0.1-0.1 0.2-0.1 0.5-0.3 0.7-0.4 0 0 0.1 0 0.1-0.1 0 0 0.1 0 0.1-0.1h0.1s0.1 0 0.1-0.1c0.1-0.1 0.3-0.2 0.4-0.2 0.1-0.1 0.2-0.1 0.3-0.2l0.1-0.1c0.2-0.1 0.5-0.3 0.7-0.4 0 0 0.1 0 0.1-0.1 0 0 0.1 0 0.1-0.1 0.3-0.2 0.6-0.3 0.9-0.5l0.1-0.1c0.3-0.2 0.7-0.4 1-0.6 1-0.6 1.9-1.1 2.9-1.7 9.2-5.5 18.3-11.3 27.1-17.4 8.9-6.2 17.6-12.7 26-19.4l-31.4-38.9c-22.5 18.6-47.6 34.6-74.1 47.6zM488.5 192v400.6l285.9 90.9 15.2-47.6-251-79.8V192h-50.1z" fill="#f4ea2a" p-id="3067"></path></svg>