<?xml version="1.0" standalone="no"?><!DOCTYPE svg PUBLIC "-//W3C//DTD SVG 1.1//EN" "http://www.w3.org/Graphics/SVG/1.1/DTD/svg11.dtd"><svg t="1573469255702" class="icon" viewBox="0 0 1024 1024" version="1.1" xmlns="http://www.w3.org/2000/svg" p-id="1162" xmlns:xlink="http://www.w3.org/1999/xlink" width="200" height="200"><defs><style type="text/css"></style></defs><path d="M544 0C281.6 0 64 217.6 64 480c0 128 51.2 236.8 128 326.4L192 960c0 32 32 64 64 64l576 0c32 0 64-32 64-64l0-153.6c76.8-83.2 128-198.4 128-326.4C1024 217.6 806.4 0 544 0zM800 716.8 768 755.2l0 51.2L768 896l-64 0 0-64-64 0 0 64L576 896l0-64L512 832l0 64L448 896l0-64L384 832l0 64L320 896l0-89.6 0-51.2-32-38.4c-64-64-96-147.2-96-236.8C192 288 352 128 544 128S896 288 896 480C896 569.6 864 652.8 800 716.8z" p-id="1163" fill="red"></path><path d="M384 544m-96 0a1.5 1.5 0 1 0 192 0 1.5 1.5 0 1 0-192 0Z" p-id="1164" fill="red"></path><path d="M704 544m-96 0a1.5 1.5 0 1 0 192 0 1.5 1.5 0 1 0-192 0Z" p-id="1165" fill="red"></path></svg>